0
SECTION
2
HEADER
9
$INSUNITS
70
1
9
$ACADVER
1
AC1014
9
$HANDSEED
5
FFFF
0
ENDSEC
0
SECTION
2
TABLES
0
TABLE
2
VPORT
5
8
100
AcDbSymbolTable
0
ENDTAB
0
TABLE
2
LTYPE
5
5
100
AcDbSymbolTable
0
LTYPE
5
14
100
AcDbSymbolTableRecord
100
AcDbLinetypeTableRecord
2
BYBLOCK
70
0
0
LTYPE
5
15
100
AcDbSymbolTableRecord
100
AcDbLinetypeTableRecord
2
BYLAYER
70
0
0
ENDTAB
0
TABLE
2
LAYER
5
2
100
AcDbSymbolTable
70
2
0
LAYER
5
50
100
AcDbSymbolTableRecord
100
AcDbLayerTableRecord
2
0
70
0
6
CONTINUOUS
0
ENDTAB
0
TABLE
2
STYLE
5
3
100
AcDbSymbolTable
70
1
0
STYLE
5
11
100
AcDbSymbolTableRecord
100
AcDbTextStyleTableRecord
2
STANDARD
70
0
0
ENDTAB
0
TABLE
2
VIEW
5
6
100
AcDbSymbolTable
70
0
0
ENDTAB
0
TABLE
2
UCS
5
7
100
AcDbSymbolTable
70
0
0
ENDTAB
0
TABLE
2
APPID
5
9
100
AcDbSymbolTable
70
2
0
APPID
5
12
100
AcDbSymbolTableRecord
100
AcDbRegAppTableRecord
2
ACAD
70
0
0
ENDTAB
0
TABLE
2
DIMSTYLE
5
A
100
AcDbSymbolTable
70
1
0
ENDTAB
0
TABLE
2
BLOCK_RECORD
5
1
100
AcDbSymbolTable
70
1
0
BLOCK_RECORD
5
1F
100
AcDbSymbolTableRecord
100
AcDbBlockTableRecord
2
*MODEL_SPACE
0
BLOCK_RECORD
5
1B
100
AcDbSymbolTableRecord
100
AcDbBlockTableRecord
2
*PAPER_SPACE
0
ENDTAB
0
ENDSEC
0
SECTION
2
BLOCKS
0
BLOCK
5
20
100
AcDbEntity
100
AcDbBlockBegin
2
*MODEL_SPACE
0
ENDBLK
5
21
100
AcDbEntity
100
AcDbBlockEnd
0
BLOCK
5
1C
100
AcDbEntity
100
AcDbBlockBegin
2
*PAPER_SPACE
0
ENDBLK
5
1D
100
AcDbEntity
100
AcDbBlockEnd
0
ENDSEC
0
SECTION
2
ENTITIES
0
CIRCLE
5
100
100
AcDbEntity
8
0
100
AcDbCircle
10
-3.850887600336228
20
17.66489314917234
30
-4.3709567898628207e-17
40
0.16499999999999948
210
4.1258648187865672e-33
220
-1.0842021724855042e-19
230
1
0
CIRCLE
5
101
100
AcDbEntity
8
0
100
AcDbCircle
10
-0.85088760033622612
20
17.664893149172471
30
-4.3709567898628207e-17
40
0.16500000000000009
210
4.1258641759380934e-33
220
-1.0842021724855042e-19
230
1
0
CIRCLE
5
102
100
AcDbEntity
8
0
100
AcDbCircle
10
-0.85088760033610888
20
14.996893149172472
30
4.3709567898628207e-17
40
0.16500000000000017
210
2.9362090004200569e-33
220
-6.8085737752894183e-55
230
1
0
CIRCLE
5
103
100
AcDbEntity
8
0
100
AcDbCircle
10
-3.8508876003361108
20
14.996893149172339
30
0
40
0.16499999999999879
210
-4.2965431798356777e-33
220
9.9629589113502108e-55
230
1
0
CIRCLE
5
104
100
AcDbEntity
8
0
100
AcDbCircle
10
-2.3508876003361681
20
16.330893149172397
30
0
40
0.80000000000000027
210
-1.4006157158235969e-33
220
-1.084202172485504e-19
230
1
0
LWPOLYLINE
5
105
100
AcDbEntity
8
0
100
AcDbPolyline
90
36
70
1
43
0.0
10
-0.45088760033606717
20
14.580893149172487
10
-0.75088760033606727
20
14.580893149172478
10
-0.75088760033606716
20
14.08089314917248
10
-0.45088760033606717
20
14.080893149172486
10
-0.45088760033603509
20
13.330893149172482
10
-4.2508876003360365
20
13.330893149172317
10
-4.2508876003360694
20
14.080893149172326
10
-3.9508876003360709
20
14.080893149172329
10
-3.95088760033607
20
14.580893149172331
10
-4.2508876003360694
20
14.580893149172327
10
-4.2508876003360694
20
15.080893149172329
10
-4.5008876003360694
20
15.080893149172335
10
-4.5008876003360694
20
15.580893149172338
10
-4.2508876003360694
20
15.580893149172329
10
-4.2508876003362692
20
17.080893149172315
10
-4.500887600336271
20
17.080893149172322
10
-4.5008876003362692
20
17.580893149172326
10
-4.2508876003362692
20
17.580893149172322
10
-4.2508876003362692
20
18.080893149172322
10
-3.9508876003362698
20
18.080893149172329
10
-3.9508876003362698
20
18.580893149172329
10
-4.2508876003362692
20
18.580893149172326
10
-4.2508876003363012
20
19.330893149172322
10
-0.4508876003362991
20
19.330893149172486
10
-0.45088760033626657
20
18.580893149172493
10
-0.75088760033626667
20
18.580893149172482
10
-0.75088760033626678
20
18.080893149172482
10
-0.45088760033626646
20
18.080893149172489
10
-0.45088760033626657
20
17.580893149172489
10
-0.20088760033626654
20
17.580893149172478
10
-0.20088760033626657
20
17.080893149172475
10
-0.45088760033626657
20
17.080893149172486
10
-0.45088760033606706
20
15.580893149172494
10
-0.20088760033606703
20
15.580893149172489
10
-0.20088760033606715
20
15.080893149172486
10
-0.45088760033606717
20
15.080893149172489
0
ENDSEC
0
SECTION
2
OBJECTS
0
DICTIONARY
5
C
100
AcDbDictionary
3
ACAD_GROUP
350
D
3
ACAD_MLINESTYLE
350
17
0
DICTIONARY
5
D
100
AcDbDictionary
0
DICTIONARY
5
1A
330
C
100
AcDbDictionary
0
DICTIONARY
5
17
100
AcDbDictionary
0
ENDSEC
0
EOF
